# xmcd
#
# Track frame offsets:
#	182
#	21412
#	38200
#	55075
#	81375
#	97100
#	121925
#	137712
#	155137
#
# Disc length: 2294 seconds
#
# Revision: 2
# Processed by: cddbd v1.4PL0 Copyright (c) Steve Scherf et al.
# Submitted via: EZCDDA 4.3.2
#
DISCID=7b08f409
DTITLE=Rebeldes - Basicamente Vol I
DYEAR=1900
DGENRE=
TTITLE0=Mediterraneo
TTITLE1=Hacerte el Amor
TTITLE2=Eres Especial
TTITLE3=Ave Nocturna - Preguntas y Respuestas
TTITLE4=Ardiente Amor
TTITLE5=La Rosa y la Cruz
TTITLE6=La ley del más fuerte
TTITLE7=Rock'n me
TTITLE8=Un Español en Nueva York
EXTD=
EXTT0=
EXTT1=
EXTT2=
EXTT3=
EXTT4=
EXTT5=
EXTT6=
EXTT7=
EXTT8=
PLAYORDER=
